<?xml version="1.0" encoding="iso-8859-1"?>
<!-- Generator: Adobe Illustrator 19.0.0, SVG Export Plug-In . SVG Version: 6.00 Build 0)  -->
<svg version="1.1" id="Layer_1" xmlns="http://www.w3.org/2000/svg" xmlns:xlink="http://www.w3.org/1999/xlink" x="0px" y="0px"
width="28px" height="28px" viewBox="0 0 512 512" style="enable-background:new 0 0 512 512;" xml:space="preserve">
<g>
	<g>
		<path d="M502.8,12.688c-15.237-14.067-42.713-8.426-98,20.119c-22.205,11.464-43.099,23.733-54.724,30.738
			c-28.941-13.02-61.014-20.273-94.752-20.273c-34.697,0-67.629,7.679-97.208,21.406c-12.369-6.711-31.263-16.645-51.13-25.917
			C50.604,12.447,22.924,7.909,8.259,22.573C-6.403,37.237-1.864,64.916,24.447,121.299c8.627,18.487,17.825,36.121,24.469,48.451
			c-16.175,31.597-25.307,67.371-25.307,105.238c0,127.768,103.948,231.716,231.716,231.716s231.716-103.948,231.716-231.716
			c0-36.998-8.731-71.991-24.217-103.049c5.681-11.3,17.25-34.896,27.747-59.959C514.608,54.589,518.037,26.75,502.8,12.688z
			 M38.501,52.815c9.056,1.965,26.92,7.605,59.933,23.473c7.524,3.616,14.83,7.282,21.543,10.739
			c-18.059,13.041-34.171,28.615-47.812,46.199c-3.264-6.363-6.703-13.232-10.104-20.301C46.129,79.799,40.471,61.887,38.501,52.815
			z M449.285,283.049c-8.967-8.511-18.472-16.454-28.497-23.738l-22.084,30.4c15.863,11.523,30.27,24.905,42.943,39.844
			c-23.634,80.567-98.211,139.573-186.321,139.573S92.638,410.123,69.003,329.555c12.673-14.938,27.079-28.318,42.944-39.844
			l-22.086-30.4c-10.025,7.283-19.531,15.228-28.496,23.738c-0.11-2.675-0.18-5.36-0.18-8.063
			c0-107.049,87.091-194.141,194.141-194.141s194.141,87.091,194.141,194.141C449.465,277.688,449.395,280.374,449.285,283.049z
			 M452.731,104.936c-4.562,10.551-9.236,20.698-13.379,29.42c-14.545-18.988-31.954-35.669-51.582-49.391
			c8.094-4.657,17.398-9.867,27.076-15.004c32.351-17.175,49.976-23.524,58.945-25.849
			C472.187,53.239,467.265,71.314,452.731,104.936z"/>
	</g>
</g>
<g>
	<g>
		<path d="M161.386,249.461c-13.808,0-25.045,11.235-25.05,25.05c0,13.813,11.236,25.05,25.048,25.05h0.003
			c13.813,0,25.05-11.238,25.05-25.05C186.436,260.699,175.199,249.461,161.386,249.461z"/>
	</g>
</g>
<g>
	<g>
		<path d="M349.264,249.461c-13.808,0-25.045,11.234-25.05,25.05c0,13.813,11.236,25.05,25.048,25.05h0.003
			c13.813,0,25.05-11.238,25.05-25.05C374.314,260.699,363.077,249.461,349.264,249.461z"/>
	</g>
</g>
<g>
	<g>
		<path d="M361.789,337.138c0,24.172-19.666,43.838-43.838,43.838c-18.669,0-34.641-11.736-40.95-28.214
			c1.011-0.287,2.029-0.59,3.052-0.932c20.104-6.702,31.635-21.188,31.635-39.742v-50.101c0-17.266,14.047-31.313,31.313-31.313
			c8.363,0,16.226,3.257,22.141,9.171l26.568-26.572c-13.011-13.01-30.31-20.174-48.709-20.174
			c-37.985,0-68.889,30.903-68.889,68.889v50.101c0,0.493,0,1.997-5.416,3.915c-5.184,1.836-11.313,2.313-13.372,2.347
			c-2.059-0.034-8.188-0.51-13.372-2.347c-5.416-1.919-5.416-3.421-5.416-3.915v-50.101c0-37.985-30.903-68.889-68.889-68.889
			c-18.401,0-35.701,7.166-48.712,20.177l26.57,26.57c5.914-5.914,13.778-9.171,22.142-9.171c17.266,0,31.313,14.047,31.313,31.313
			v50.101c0,18.556,11.531,33.042,31.634,39.742c1.025,0.341,2.042,0.645,3.054,0.932c-6.309,16.478-22.28,28.214-40.95,28.214
			c-24.172,0-43.838-19.666-43.838-43.838h-37.576c0,38.425,26.765,70.695,62.626,79.201v21.001h37.576v-21.001
			c17.443-4.137,32.735-13.883,43.838-27.244c11.104,13.361,26.396,23.106,43.838,27.244v21.001h37.576v-21.001
			c35.861-8.507,62.626-40.777,62.626-79.201H361.789z"/>
	</g>
</g>
<g>
	<g>
		<path d="M282.479,133.627c-8.463,5.643-14.055,9.37-27.155,9.37s-18.69-3.727-27.155-9.37
			c-10.479-6.987-23.521-15.68-47.997-15.68v37.576c13.099,0,18.69,3.727,27.155,9.37c10.479,6.985,23.521,15.68,47.997,15.68
			s37.518-8.694,47.997-15.68c8.463-5.643,14.055-9.37,27.155-9.37v-37.576C305.999,117.947,292.958,126.641,282.479,133.627z"/>
	</g>
</g>
<g>
</g>
<g>
</g>
<g>
</g>
<g>
</g>
<g>
</g>
<g>
</g>
<g>
</g>
<g>
</g>
<g>
</g>
<g>
</g>
<g>
</g>
<g>
</g>
<g>
</g>
<g>
</g>
<g>
</g>
</svg>
